<svg width="52" height="52" viewBox="0 0 52 52" fill="none" xmlns="http://www.w3.org/2000/svg">
<rect width="52" height="52" rx="8" fill="black"/>
<path d="M12.2082 25.37C12.9216 25.71 13.2782 26.2733 13.2782 27.06C13.2782 27.6733 13.0449 28.1733 12.5782 28.56C12.1182 28.94 11.5149 29.13 10.7682 29.13C9.48824 29.13 8.64158 28.59 8.22824 27.51L9.21824 26.94C9.42491 27.68 9.94158 28.05 10.7682 28.05C11.2082 28.05 11.5449 27.9567 11.7782 27.77C12.0116 27.5767 12.1282 27.32 12.1282 27C12.1282 26.6867 12.0149 26.4367 11.7882 26.25C11.5682 26.0567 11.2549 25.96 10.8482 25.96H9.99824V24.92H10.6182C11.0116 24.92 11.3182 24.83 11.5382 24.65C11.7582 24.47 11.8682 24.23 11.8682 23.93C11.8682 23.63 11.7682 23.3933 11.5682 23.22C11.3682 23.04 11.0816 22.95 10.7082 22.95C10.0149 22.95 9.54824 23.2667 9.30824 23.9L8.32824 23.33C8.78158 22.3567 9.57491 21.87 10.7082 21.87C11.3949 21.87 11.9516 22.0567 12.3782 22.43C12.8049 22.7967 13.0182 23.2767 13.0182 23.87C13.0182 24.53 12.7482 25.03 12.2082 25.37ZM18.173 24H19.253V29H18.173V28.28C17.7663 28.8467 17.183 29.13 16.423 29.13C15.7363 29.13 15.1497 28.8767 14.663 28.37C14.1763 27.8567 13.933 27.2333 13.933 26.5C13.933 25.76 14.1763 25.1367 14.663 24.63C15.1497 24.1233 15.7363 23.87 16.423 23.87C17.183 23.87 17.7663 24.15 18.173 24.71V24ZM15.463 27.65C15.763 27.95 16.1397 28.1 16.593 28.1C17.0463 28.1 17.423 27.95 17.723 27.65C18.023 27.3433 18.173 26.96 18.173 26.5C18.173 26.04 18.023 25.66 17.723 25.36C17.423 25.0533 17.0463 24.9 16.593 24.9C16.1397 24.9 15.763 25.0533 15.463 25.36C15.163 25.66 15.013 26.04 15.013 26.5C15.013 26.96 15.163 27.3433 15.463 27.65ZM25.6118 24V29H24.5618V25.71L23.1218 28H22.9918L21.5618 25.72V29H20.5118V24H21.6118L23.0618 26.31L24.5118 24H25.6118ZM27.7095 26.96C27.7895 27.34 27.9728 27.6333 28.2595 27.84C28.5462 28.04 28.8962 28.14 29.3095 28.14C29.8828 28.14 30.3128 27.9333 30.5995 27.52L31.4895 28.04C30.9962 28.7667 30.2662 29.13 29.2995 29.13C28.4862 29.13 27.8295 28.8833 27.3295 28.39C26.8295 27.89 26.5795 27.26 26.5795 26.5C26.5795 25.7533 26.8262 25.13 27.3195 24.63C27.8128 24.1233 28.4462 23.87 29.2195 23.87C29.9528 23.87 30.5528 24.1267 31.0195 24.64C31.4928 25.1533 31.7295 25.7767 31.7295 26.51C31.7295 26.6233 31.7162 26.7733 31.6895 26.96H27.7095ZM27.6995 26.08H30.6395C30.5662 25.6733 30.3962 25.3667 30.1295 25.16C29.8695 24.9533 29.5628 24.85 29.2095 24.85C28.8095 24.85 28.4762 24.96 28.2095 25.18C27.9428 25.4 27.7728 25.7 27.6995 26.08ZM36.0498 24H37.1298V29H36.0498V27.01H33.7598V29H32.6798V24H33.7598V25.99H36.0498V24ZM42.3429 24H43.4229V29H42.3429V28.28C41.9363 28.8467 41.3529 29.13 40.5929 29.13C39.9063 29.13 39.3196 28.8767 38.8329 28.37C38.3463 27.8567 38.1029 27.2333 38.1029 26.5C38.1029 25.76 38.3463 25.1367 38.8329 24.63C39.3196 24.1233 39.9063 23.87 40.5929 23.87C41.3529 23.87 41.9363 24.15 42.3429 24.71V24ZM39.6329 27.65C39.9329 27.95 40.3096 28.1 40.7629 28.1C41.2163 28.1 41.5929 27.95 41.8929 27.65C42.1929 27.3433 42.3429 26.96 42.3429 26.5C42.3429 26.04 42.1929 25.66 41.8929 25.36C41.5929 25.0533 41.2163 24.9 40.7629 24.9C40.3096 24.9 39.9329 25.0533 39.6329 25.36C39.3329 25.66 39.1829 26.04 39.1829 26.5C39.1829 26.96 39.3329 27.3433 39.6329 27.65Z" fill="white"/>
</svg>
